<?xml version="1.0" encoding="utf-8"?>
<!-- Generator: Adobe Illustrator 27.5.0, SVG Export Plug-In . SVG Version: 6.00 Build 0)  -->
<svg version="1.1" xmlns="http://www.w3.org/2000/svg" xmlns:xlink="http://www.w3.org/1999/xlink" x="0px" y="0px"
	 viewBox="0 0 500 500" style="enable-background:new 0 0 500 500;" xml:space="preserve">
<g id="BACKGROUND">
	<rect style="fill:#F9FFF3;" width="500" height="500"/>
</g>
<g id="OBJECTS">
	<path style="opacity:0.1;fill:#2C2A40;" d="M411.245,180.794c-8.958-34.793-41.655-32.629-72.635-26.173
		c-16.665,3.473-40.001,8.278-64.353,1.182c-52.415-15.275-112.683-19.089-142.384,0c-29.7,19.089-47.555,42.09-38.99,74.224
		c8.564,32.134,30.321,61.025,11.818,78.223s-18.192,82.332,57.893,87.404c76.085,5.072,68.539-67.943,118.786-64.553
		c50.248,3.39,153.394,52.818,157.751,16.983c4.357-35.835-51.606-61.396-31.544-120.901
		C411.568,215.372,415.339,196.696,411.245,180.794z"/>
	<g>
		<path style="opacity:0.1;fill:#2C2A40;" d="M236.293,123.852c0,0,1.943-12.478,7.414-11.992c1.514,0.135,2.544,1.669,3.219,3.317
			c0.416,1.015,1.87,0.944,2.171-0.111c1.448-5.07,4.408-12.809,8.996-12.809c4.745,0,4.902,8.854,4.558,14.247
			c-0.052,0.812,1.001,1.173,1.458,0.5c1.252-1.842,3.078-3.611,5.3-3.098c4.327,0.998,3.162,9.946,3.162,9.946H236.293z"/>
		<path style="opacity:0.1;fill:#2C2A40;" d="M36.2,241.2c0,0,1.943-12.478,7.414-11.992c1.514,0.135,2.544,1.669,3.219,3.317
			c0.416,1.015,1.87,0.944,2.171-0.111c1.447-5.07,4.408-12.809,8.996-12.809c4.745,0,4.902,8.855,4.558,14.247
			c-0.052,0.812,1.001,1.173,1.458,0.5c1.252-1.842,3.078-3.611,5.3-3.098c4.327,0.999,3.162,9.946,3.162,9.946H36.2z"/>
		<path style="opacity:0.1;fill:#2C2A40;" d="M421.164,191.346c0,0,1.943-12.478,7.414-11.992c1.514,0.135,2.544,1.669,3.219,3.317
			c0.416,1.015,1.869,0.944,2.171-0.111c1.448-5.07,4.408-12.809,8.996-12.809c4.745,0,4.902,8.854,4.558,14.247
			c-0.052,0.812,1.001,1.173,1.458,0.5c1.252-1.842,3.078-3.611,5.299-3.098c4.327,0.998,3.162,9.946,3.162,9.946H421.164z"/>
	</g>
	<g>
		<g>
			<g>
				<path style="fill:#F9B587;" d="M305.588,223.669c0,0-5.713,4.961-13.936,8.087c0,0-4.719,2.951-10.761,6.392
					c0,0-0.002,0-0.002,0.003c-7.115,4.053-12.609,6.737-17.853,8.161c-4.416,1.197-8.336,2.701-11.298,3.984
					c-0.36,0.155-0.706,0.308-1.034,0.456h-0.002c-2.933,1.317-4.687,2.302-4.687,2.302l-3.676-8.659c0,0,6.68-6.639,10.627-9.905
					c4.89-4.051,13.751-12.757,24.139-16.514c0,0,0,0,0-0.003c0.829-0.298,1.623-0.533,2.376-0.691c0,0,8.35-5.847,14.459-9.036
					c2.025-1.056,3.802-1.821,4.949-1.983C298.887,206.262,308.669,215.254,305.588,223.669z"/>
				<path style="fill:#F39568;" d="M282.606,222.215c0,0-3.478-3.858-5.501-4.241c0,0,0,0,0-0.003
					c0.829-0.298,1.623-0.533,2.376-0.691C279.48,217.282,282.297,220.119,282.606,222.215z"/>
				<path style="fill:#F39568;" d="M305.588,223.669c0,0-5.713,4.961-13.936,8.087c0,0-4.719,2.951-10.761,6.392
					c4.204-2.98,10.842-9.352,15.941-13.711c3.481-2.977,1.558-6.778,0.144-10.335c-0.589-1.481-2.118-4.055-2.839-5.737
					c-0.031-0.072-0.135-0.078-0.199-0.118c2.025-1.056,3.802-1.821,4.949-1.983C298.887,206.262,308.669,215.254,305.588,223.669z"
					/>
			</g>
			<path style="fill:#F9B587;" d="M250.351,247.464l1.113,10.422c0.118,1.103-0.296,2.197-1.116,2.945l-6.082,5.555
				c-0.724,0.662-1.849,0.61-2.509-0.116l0,0c-0.553-0.608-0.617-1.516-0.153-2.195l4.515-6.614l-0.782-2.001l-2.636,4.015
				l-2.12,3.949l-1.076,6.149c-0.156,0.894-1.029,1.476-1.914,1.277l0,0c-0.773-0.174-1.3-0.89-1.236-1.68l0.602-7.382l0.887-5.367
				l-2.179,5.532l-2.387,9.065c-0.158,0.6-0.664,1.044-1.279,1.123l0,0c-0.947,0.122-1.772-0.648-1.715-1.602l0.473-7.956
				l1.629-5.724l-4.756,7.964l-2.583,5.617c-0.285,0.621-0.984,0.936-1.638,0.741l0,0c-0.727-0.217-1.139-0.984-0.919-1.71
				l1.999-6.608l3.371-6.473l-3.279,5.148l-0.885,2.02c-0.184,0.421-0.675,0.613-1.097,0.429l0,0
				c-0.365-0.16-0.566-0.556-0.478-0.945l0.518-2.305l2.279-4.757l17.511-11.614C242.429,244.367,245.362,243.377,250.351,247.464z"
				/>
			<path style="fill:#F39568;" d="M251.542,250.379c-0.36,0.155-0.51,0.224-0.839,0.372h-0.002c0,0-0.268-1.378-2.406-3.146
				C248.401,247.639,250.001,248.139,251.542,250.379z"/>
		</g>
		<path style="fill:#2C2A40;" d="M412.664,229.656c-0.363,0.71-1.142,1.184-1.983,1.5c0.693,10.62,0.444,19.733-1.152,23.845
			c-4.919,12.663-46.793,18.852-56.86,9.658c-10.065-9.194-15.547-69.893-1.978-79.47c10.129-7.152,31.384-8.316,41.506-8.447
			c4.236-0.054,8.094,2.472,9.68,6.399c2.541,6.291,4.811,16.264,6.456,26.887c0.602,0.017,1.246,0.109,1.865,0.331
			C412.294,211.114,413.651,227.724,412.664,229.656z"/>
		<g>
			<path style="fill:#B0B1CA;" d="M335.815,354.941c0.362,1.482,1.042,2.97,2.132,4.419c0,0-4.434,1.792-8.549,3.47
				c-3.133,1.279-8.265,2.041-11.589,3.309c-0.828,0.317-1.543,0.667-2.089,1.062c-0.141,0.101-0.269,0.206-0.385,0.315
				c-1.837,1.711-11.469,5.743-14.509,6.468c-0.307,0.073-0.546,0.113-0.705,0.113c-0.909,0-2.185-0.393-2.96-1.636v-0.003
				c-0.695-1.117-0.987-2.917-0.247-5.73c0.715-2.726,3.02-6.018,5.303-8.781c2.784-3.367,6.146-6.204,9.921-8.403
				c3.541-2.061,8.001-4.754,8.871-5.71c2.778-3.055,5.262-6.579,9.208-8.141c0.979-0.385,2.265-0.503,3.644-0.456
				c4.183,0.138,9.234,1.757,9.234,1.757S333.592,345.901,335.815,354.941z"/>
			<path style="fill:#2C2A40;" d="M333.861,335.238c-1.912,1.384-4.949,3.804-6.197,6.007c-1.887,3.33-9.288,6.784-12.495,8.881
				s-15.564,11.76-16.775,17.064c-1.053,4.606,1.063,6.36,2.43,6.796c-0.306,0.072-0.545,0.111-0.703,0.111
				c-1.727,0-4.769-1.416-3.207-7.369c0.715-2.726,3.02-6.017,5.304-8.78c2.783-3.367,6.145-6.204,9.92-8.402
				c3.54-2.062,8-4.756,8.871-5.711c2.778-3.056,5.262-6.579,9.209-8.141C331.197,335.307,332.482,335.191,333.861,335.238z"/>
			<path style="opacity:0.2;fill:#2C2A40;" d="M337.946,359.36c0,0-4.434,1.792-8.549,3.47c-3.133,1.279-8.265,2.041-11.589,3.309
				c-0.828,0.317-1.543,0.667-2.089,1.062c-0.141,0.101-0.269,0.206-0.385,0.315c-1.837,1.711-11.469,5.743-14.509,6.468
				c-0.307,0.073-0.546,0.113-0.705,0.113c-0.909,0-2.185-0.393-2.96-1.636v-0.003c0,0,6.292-1.392,9.563-3.488
				c2.109-1.354,4.988-3.544,7.757-5.018c-0.622-1.208-1.548-2.743-2.927-4.59c0.093,0.065,2.285,1.658,4.251,3.941
				c1.057-0.468,2.074-0.79,3-0.876c3.229-0.294,13.394-3.669,17.01-7.487C336.177,356.423,336.856,357.91,337.946,359.36z"/>
		</g>
		<g>
			<path style="fill:#B0B1CA;" d="M314.231,326.145c-0.086,4.938,0.954,8.997,0.773,10.701c-0.327,3.126-5.59,9.375-5.59,9.375
				c-0.398,3.571-3.239,8.622-7.024,11.3v0.003c-0.018,0.013-0.035,0.025-0.053,0.035c-0.035,0.028-0.078,0.055-0.123,0.083
				c-2.207,1.51-4.719,2.207-7.253,1.341c-0.282-0.096-0.561-0.209-0.843-0.345c-4.845-2.333-6.35-19.049,0-25.738
				c6.126-6.455,8.715-19.736,14.803-21.216c6.083-1.48,9.209,1.15,9.209,1.15c-0.161,0.239-0.315,0.481-0.458,0.722
				C315.062,317.819,314.299,322.254,314.231,326.145z"/>
			<path style="fill:#2C2A40;" d="M318.129,312.833c-0.16,0.239-0.313,0.481-0.459,0.723c-0.577-0.212-6.35-2.245-9.902,0.017
				c-3.742,2.383-5.839,11.432-7.813,13.899c-1.974,2.467-8.141,11.511-8.304,15.048c-0.165,3.535-0.987,12.251,2.383,14.801
				c3.182,2.405,7.036,1.036,8.18,0.321c-2.452,1.678-5.282,2.349-8.097,0.994c-4.845-2.331-6.35-19.047,0-25.737
				c6.125-6.456,8.716-19.735,14.802-21.216C315.004,310.203,318.129,312.833,318.129,312.833z"/>
			<path style="opacity:0.2;fill:#2C2A40;" d="M315.004,336.846c-0.302,2.882-4.797,8.418-5.499,9.264l-0.058,0.07
				c-0.02,0.028-0.033,0.04-0.033,0.04c-0.398,3.571-3.239,8.622-7.024,11.3v0.003c-0.018,0.013-0.035,0.025-0.053,0.035
				c-0.035,0.028-0.078,0.055-0.123,0.083c-2.207,1.51-4.719,2.207-7.253,1.341c0.395-0.199,0.893-0.37,1.52-0.498
				c4.311-0.883,8.021-6.858,8.839-10.13c0.244-0.974,1.007-2.2,1.971-3.496c-1.472-0.848-3.433-1.782-4.953-1.804
				c0,0,1.981-0.717,5.627,0.921c2.217-2.816,5.026-5.773,5.345-7.13c0.503-2.134,0.921-10.701,0.921-10.701
				C314.146,331.082,315.185,335.142,315.004,336.846z"/>
		</g>
		<g>
			<path style="fill:#F9B587;" d="M440.489,154.745l-12.335,6.873l-12.458,6.942c0,0-5.015-11.348-0.535-18.379
				c0,0,1.046-0.612,2.576-1.416c1.12-0.59,2.501-1.28,3.92-1.912c0.809-0.36,1.633-0.701,2.428-0.989c0,0,1.233-4.098,3.33-8.711
				c1.113-2.445,1.253-4.115,1.14-5.141c-0.101-0.91-0.4-1.32-0.4-1.32s6.414-3.234,10.114-6.367
				C438.269,124.325,446.163,142.41,440.489,154.745z"/>
			<path style="fill:#F39568;" d="M430.375,150.84c0,0-5.289,1.322-8.718-3.987c0.809-0.36,1.633-0.701,2.428-0.989
				C424.084,145.864,426.509,150.181,430.375,150.84z"/>
			<path style="fill:#F39568;" d="M428.154,161.618l-12.458,6.942c0,0-5.015-11.348-0.535-18.379c0,0,1.046-0.612,2.576-1.416
				c0,0,0.138,9.646,1.455,12.026C420.507,163.175,424.947,162.365,428.154,161.618z"/>
			<g>
				<path style="fill:#F9B587;" d="M438.269,124.325c-1.48,1.65-7.973,6.293-8.925,6.747c-0.333,0.158-0.792-0.044-1.246-0.375
					c-0.442,0.022-3.345,0.141-4.939-0.58c-0.876-0.397-0.863-1.636-0.636-2.948c-2.104-0.508-6.204-3.72-6.148-6.777
					c0.062-3.33,3.639-3.577,3.639-3.577c0.062-3.824,3.7-3.207,3.7-3.207c0.185-1.665,3.207-2.405,3.207-2.405
					c0.308-1.418,2.282-1.665,3.454-1.11c1.172,0.555,8.141,8.634,8.449,10.114C439.132,121.688,438.269,124.325,438.269,124.325z"
					/>
				<path style="fill:#F39568;" d="M427.92,125.327c0.506,1.912-1.103,2.158-1.103,2.158c0.326-0.249,0.301-1.066,0.21-1.769
					c0,0-0.012-0.479-0.19-1.051c-0.002-0.002-0.002-0.002-0.002-0.005c-0.195-0.624-0.592-1.359-1.394-1.719
					c-1.443-0.644-2.097-0.205-2.097-0.205l-2.867-3.885c1.48,0.893,3.454,3.022,3.454,3.022c2.548-0.104,3.501,1.774,3.831,2.802
					c0.501-0.039,1.056-0.257,1.256-0.952c0.4-1.389-0.523-2.729-0.523-2.729l-3.979-5.289c0,0,5.427,5.057,5.551,7.031
					C430.229,125.357,427.92,125.327,427.92,125.327z"/>
				<path style="fill:#F39568;" d="M428.494,114.041c0,0,3.55,4.238,4.02,5.396c0.513,1.264-0.289,2.529-1.214,2.775
					c-0.925,0.247-1.452-0.226-1.452-0.226l0.003,1.336c0,0,3.587,0.555,3.551-2.849
					C433.384,118.771,428.494,114.041,428.494,114.041z"/>
				<path style="fill:#F39568;" d="M433.175,119.687c0,0,0.869,0.83,1.917,0.491c1.048-0.339,1.264-1.049,1.018-1.696
					c0,0,0.637,0.626,0.093,1.542c-0.709,1.192-2.472,0.978-3.028,0.833V119.687z"/>
			</g>
			<path style="fill:#F39568;" d="M432.513,130.118c0,0-1.093,2.107-3.959,1.895c-0.101-0.91-0.4-1.32-0.4-1.32
				S430.498,130.858,432.513,130.118z"/>
		</g>
		<path style="fill:#6C8C31;" d="M391.474,291.172c0,0-3.624-7.948-2.961-12.457c0.663-4.509,6.769,2.584,7.571,4.495
			C396.886,285.122,395.745,290.375,391.474,291.172z"/>
		<path style="fill:#2C2A40;" d="M345.463,337.567c-3.592,1.552-7.376,2.462-10.489,2.58c3.288-2.41,7.166-3.301,7.166-3.301
			C343.179,336.972,344.311,337.231,345.463,337.567z"/>
		<g>
			<path style="fill:none;" d="M359.574,312.764c-0.703,3.054,0.146,6.902-2.139,13.884c-1.562,4.769-6.545,8.575-11.972,10.919
				c4.865,1.416,10.072,2.58,10.072,2.58c8.494-0.296,24.514,3.195,24.514,3.195C365.001,329.28,359.574,312.764,359.574,312.764z"
				/>
			<path style="fill:#2C2A40;" d="M416.148,355.43c-0.656-14.308-24.211-50.737-27.876-78.367l-14.76-5.324
				c-1.959-0.565-1.103-0.239-3.412-0.925c0,0-34.868-18.009-50.491,5.674c0,0-1.974,8.388,2.795,17.268
				c1.983,3.693,3.454,15.13,1.974,17.434c0,0-1.974,0.163-6.249,1.643c-2.62,0.907-6.662,2.556-9.399,3.696
				c-3.447,1.436-6.091,4.372-7.007,7.992c-0.473,1.868-0.533,4.04,0.289,6.405c2.63,7.564,9.209,8.388,13.484,7.729
				c0,0,9.211,0,16.447,1.315c0.898,0.163,1.922,0.22,3.029,0.178c-2.001,1.468-3.784,3.498-4.344,6.236
				c-1.48,7.238,5.523,12.5,5.523,12.5s0.725,1.48,6.318,1.152c5.59-0.331,5.575-1.826,10.196,0.047
				c4.621,1.872,37.004,15.248,47.693,15.741C411.051,376.317,416.806,369.738,416.148,355.43z M355.535,340.147
				c0,0-5.208-1.164-10.072-2.58c5.427-2.344,10.41-6.15,11.972-10.919c2.284-6.981,1.436-10.83,2.139-13.884
				c0,0,5.427,16.516,20.475,30.578C380.049,343.342,364.029,339.851,355.535,340.147z"/>
			<g>
				<g>
					<path style="fill:#5B5B6C;" d="M319.385,316.233c-0.502,0.105-1.012,0.211-1.525,0.319l0.156,0.739
						c0.512-0.109,1.021-0.215,1.522-0.319c0.514-0.107,1.02-0.212,1.515-0.317l-0.157-0.739
						C320.403,316.021,319.898,316.126,319.385,316.233z"/>
					<path style="fill:#5B5B6C;" d="M303.96,321.513l0.368,0.659c0.891-0.498,1.806-0.992,2.717-1.468l-0.35-0.669
						C305.778,320.515,304.858,321.012,303.96,321.513z"/>
					<path style="fill:#5B5B6C;" d="M313.057,317.667l0.193,0.73c0.884-0.234,1.866-0.47,3.002-0.724l-0.165-0.737
						C314.941,317.192,313.95,317.431,313.057,317.667z"/>
					<path style="fill:#5B5B6C;" d="M329.183,305.448l0.754-0.043c-0.059-1.031-0.158-2.079-0.295-3.114l-0.749,0.099
						C329.027,303.406,329.125,304.435,329.183,305.448z"/>
					<path style="fill:#5B5B6C;" d="M322.978,274.229l-0.754-0.05c-0.069,1.05-0.112,2.098-0.127,3.116l0.755,0.011
						C322.868,276.301,322.91,275.266,322.978,274.229z"/>
					<path style="fill:#5B5B6C;" d="M328.618,300.619l0.743-0.133c-0.189-1.063-0.419-2.092-0.682-3.058l-0.728,0.198
						C328.208,298.571,328.432,299.578,328.618,300.619z"/>
					<path style="fill:#5B5B6C;" d="M308.346,319.229l0.3,0.693c0.833-0.361,1.774-0.699,2.877-1.036l-0.22-0.722
						C310.172,318.509,309.205,318.858,308.346,319.229z"/>
					<path style="fill:#5B5B6C;" d="M328.316,313.38c-0.184,0.251-0.536,0.505-1.046,0.753l0.33,0.679
						c0.63-0.307,1.063-0.629,1.324-0.986c0.262-0.357,0.481-0.904,0.652-1.626l-0.735-0.174
						C328.658,312.803,328.454,313.191,328.316,313.38z"/>
					<path style="fill:#5B5B6C;" d="M328.143,295.675c-0.368-1.072-0.786-2.049-1.24-2.903l-0.667,0.355
						c0.436,0.819,0.837,1.759,1.193,2.793L328.143,295.675z"/>
					<path style="fill:#5B5B6C;" d="M322.857,279.101l-0.755,0.015c0.021,1.088,0.078,2.139,0.167,3.122l0.752-0.069
						C322.934,281.203,322.878,280.171,322.857,279.101z"/>
					<path style="fill:#5B5B6C;" d="M329.999,307.23l-0.755,0.008c0.001,0.113,0.002,0.224,0.001,0.336
						c0,0.985-0.043,1.899-0.127,2.716l0.751,0.077c0.087-0.843,0.131-1.783,0.131-2.793
						C330.001,307.461,330,307.346,329.999,307.23z"/>
					<path style="fill:#5B5B6C;" d="M323.85,286.93c-0.254-0.901-0.462-1.906-0.62-2.985l-0.747,0.109
						c0.162,1.112,0.378,2.148,0.64,3.081L323.85,286.93z"/>
					<path style="fill:#5B5B6C;" d="M324.419,288.6l-0.699,0.285c0.398,0.976,0.874,1.823,1.415,2.518
						c0.06,0.077,0.119,0.155,0.177,0.235l0.609-0.446c-0.063-0.086-0.126-0.17-0.19-0.252
						C325.232,290.3,324.791,289.513,324.419,288.6z"/>
					<path style="fill:#5B5B6C;" d="M322.66,315.531l0.168,0.736c1.267-0.289,2.23-0.539,3.031-0.79l-0.225-0.721
						C324.852,315.001,323.907,315.247,322.66,315.531z"/>
				</g>
			</g>
			<g>
				<g>
					<path style="fill:#5B5B6C;" d="M361.68,311.214c-0.53-0.807-0.827-1.265-0.827-1.265l0.634-0.411
						c0,0.001,0.296,0.457,0.825,1.261L361.68,311.214z"/>
				</g>
				<g>
					<path style="fill:#5B5B6C;" d="M347.34,341.03c0.799,0.191,1.75,0.434,2.908,0.742l0.194-0.729
						c-1.164-0.31-2.121-0.554-2.926-0.747L347.34,341.03z"/>
					<path style="fill:#5B5B6C;" d="M342.772,339.58l-0.095,0.749c0.761,0.097,1.444,0.163,2.03,0.195
						c0.211,0.011,0.526,0.056,0.935,0.133l0.14-0.742c-0.448-0.085-0.786-0.132-1.034-0.146
						C344.18,339.739,343.516,339.675,342.772,339.58z"/>
					<path style="fill:#5B5B6C;" d="M351.941,342.228c0.916,0.25,1.887,0.518,2.898,0.8l0.203-0.728
						c-1.011-0.282-1.984-0.551-2.902-0.801L351.941,342.228z"/>
					
						<rect x="357.701" y="342.039" transform="matrix(0.2701 -0.9628 0.9628 0.2701 -69.4231 595.5049)" style="fill:#5B5B6C;" width="0.755" height="3.008"/>
					<path style="fill:#5B5B6C;" d="M361.114,344.786c0.964,0.27,1.934,0.54,2.899,0.807l0.201-0.728
						c-0.965-0.267-1.934-0.537-2.897-0.806L361.114,344.786z"/>
					<path style="fill:#5B5B6C;" d="M373.01,326.529c-0.581-0.82-1.158-1.642-1.727-2.458l-0.619,0.432
						c0.57,0.817,1.148,1.64,1.73,2.462L373.01,326.529z"/>
					<path style="fill:#5B5B6C;" d="M387.594,345.393c-0.207-0.804-0.727-1.692-1.589-2.714l-0.577,0.487
						c0.776,0.921,1.259,1.734,1.435,2.416L387.594,345.393z"/>
					<path style="fill:#5B5B6C;" d="M375.785,330.391c-0.584-0.799-1.171-1.612-1.758-2.433l-0.614,0.44
						c0.588,0.822,1.178,1.638,1.763,2.439L375.785,330.391z"/>
					<path style="fill:#5B5B6C;" d="M338.014,339.272l-0.052,0.259c1.054,0.211,2.053,0.394,2.968,0.543l0.121-0.745
						c-0.44-0.072-0.902-0.152-1.379-0.239C339.12,339.159,338.567,339.22,338.014,339.272z"/>
					<path style="fill:#5B5B6C;" d="M362.643,312.677c0.478,0.724,1.039,1.569,1.666,2.507l0.628-0.419
						c-0.626-0.937-1.186-1.781-1.664-2.504L362.643,312.677z"/>
					<path style="fill:#5B5B6C;" d="M380.788,348.627c-0.268,0.008-0.613-0.01-1.033-0.056l-0.082,0.751
						c0.379,0.041,0.708,0.062,0.978,0.062c0.056,0,0.109-0.001,0.161-0.003c0.701-0.023,1.355-0.068,1.942-0.133l-0.083-0.751
						C382.103,348.561,381.469,348.604,380.788,348.627z"/>
					<path style="fill:#5B5B6C;" d="M384.415,341.013c-0.492-0.467-1.064-1.066-1.699-1.782l-0.565,0.501
						c0.649,0.731,1.236,1.346,1.743,1.828c0.125,0.118,0.246,0.235,0.362,0.35l0.53-0.538
						C384.668,341.255,384.544,341.135,384.415,341.013z"/>
					<path style="fill:#5B5B6C;" d="M381.58,337.91c-0.582-0.696-1.215-1.48-1.882-2.33l-0.594,0.466
						c0.672,0.855,1.31,1.645,1.896,2.347L381.58,337.91z"/>
					<path style="fill:#5B5B6C;" d="M376.216,332.251c0.628,0.846,1.237,1.656,1.811,2.406l0.6-0.459
						c-0.572-0.747-1.179-1.553-1.804-2.396L376.216,332.251z"/>
					<path style="fill:#5B5B6C;" d="M384.352,348.217l0.176,0.734c1.401-0.336,2.316-0.851,2.797-1.576l-0.629-0.417
						C386.33,347.508,385.541,347.932,384.352,348.217z"/>
					<path style="fill:#5B5B6C;" d="M365.706,346.06c0.983,0.269,1.956,0.532,2.906,0.784l0.194-0.729
						c-0.949-0.252-1.92-0.515-2.901-0.784L365.706,346.06z"/>
					<path style="fill:#5B5B6C;" d="M374.947,348.436c1.131,0.259,2.128,0.468,2.963,0.62l0.135-0.743
						c-0.824-0.15-1.809-0.356-2.929-0.613L374.947,348.436z"/>
					<path style="fill:#5B5B6C;" d="M367.958,320.584c0.552,0.808,1.122,1.637,1.704,2.478l0.621-0.43
						c-0.582-0.84-1.151-1.668-1.702-2.475L367.958,320.584z"/>
					<path style="fill:#5B5B6C;" d="M367.595,318.71c-0.59-0.868-1.153-1.702-1.682-2.489l-0.627,0.421
						c0.53,0.788,1.094,1.623,1.684,2.492L367.595,318.71z"/>
					<path style="fill:#5B5B6C;" d="M370.312,347.291c1.049,0.273,2.032,0.521,2.922,0.738l0.179-0.733
						c-0.886-0.216-1.866-0.464-2.911-0.736L370.312,347.291z"/>
				</g>
			</g>
		</g>
		<path style="fill:#2C2A40;" d="M345.463,337.567c-3.592,1.552-7.376,2.462-10.489,2.58c3.288-2.41,7.166-3.301,7.166-3.301
			C343.179,336.972,344.311,337.231,345.463,337.567z"/>
		<g>
			<path style="fill:#A5C723;" d="M416.945,170.41c-0.052,4.761-0.303,8.222-0.303,8.222c-0.883,0.323-1.826,0.738-2.807,1.236
				c-6.508,3.298-14.592,10.178-16.558,17.185c-0.782,2.788-1.145,8.545-1.285,15.056c-0.116,5.262-0.084,11.015-0.012,16.089
				c0.005,0.274,0.007,0.548,0.012,0.817c0.101,6.426,0.259,11.624,0.259,13.102c0,4.11-0.824,16.282-0.987,21.544
				c-0.165,5.262,1.315,10.854,1.974,19.735c0.656,8.881-5.763,7.776-5.763,7.776c6.251-2.63,3.012-10.114-0.982-11.723
				c-0.595-0.239-1.283-0.498-2.055-0.77c-0.003-0.003-0.003-0.003-0.003-0.003c-9.547-3.38-31.688-9.083-42.971-10.741
				c-16.807-2.467-25.853,8.553-25.853,8.553s3.288-18.255,6.086-21.874c2.795-3.617,4.44-15.458,5.59-20.392
				c0.155-0.659,0.239-1.495,0.274-2.45c0.158-4.418-0.807-11.358-1.369-14.952c-0.224-1.433-0.385-2.334-0.385-2.334
				c-1.7,2.795-12.739,8.55-18.388,11.368c-1.996,0.997-3.32,1.623-3.32,1.623l-4.685-7.11l-9.293-14.106
				c0,0,0.617-0.56,2.541-2.077c1.369-1.078,3.399-2.64,6.34-4.83c7.07-5.262,15.458-14.802,18.583-16.282
				c3.126-1.48,3.619-1.315,7.729-5.262c2.884-2.768,13.348-6.12,19.343-7.877c2.553-0.747,4.295-1.206,4.295-1.206
				c8.013,2.428,13.936-0.95,13.936-0.95s2.191-1.436,5.156-3.232c4.808-2.913,11.656-6.772,14.503-6.994
				c3.607-0.281,19.119-4.643,25.673-6.522c1.816-0.518,2.943-0.849,2.943-0.849C416.735,156.011,417.006,164.285,416.945,170.41z"
				/>
			<g>
				<path style="fill:#2C2A40;" d="M359.441,176.249c-7.092,0.355-10.104-4.902-10.785-6.315c2.553-0.747,4.295-1.206,4.295-1.206
					c8.013,2.428,13.936-0.95,13.936-0.95s2.191-1.436,5.156-3.232C372.9,171.784,367.433,175.847,359.441,176.249z"/>
				<path style="fill:#2C2A40;" d="M311.417,225.854c-1.996,0.997-3.32,1.623-3.32,1.623l-13.978-21.216c0,0,0.617-0.56,2.541-2.077
					L311.417,225.854z"/>
				<path style="fill:#2C2A40;" d="M416.641,178.632c-0.883,0.323-1.826,0.738-2.807,1.236c1.226-11.935-0.678-23.961-1.616-28.838
					c1.816-0.518,2.943-0.849,2.943-0.849C417.959,160.542,416.641,178.632,416.641,178.632z"/>
			</g>
			<path style="fill:#B8E019;" d="M395.978,228.198c-11.525-5.045-39.619-14.091-64.419,3.575
				c0.158-4.418-0.807-11.358-1.369-14.952c3.762-2.378,21.815-13.166,39.086-12.636c11.891,0.365,21.248,4.655,26.714,7.924
				C395.875,217.37,395.907,223.123,395.978,228.198z"/>
		</g>
		<g>
			<path style="fill:#2C2A40;" d="M340.366,129.147c0,0-4.562-1.027-5.127,4.271c-0.484,4.541,5.282,6.242,5.282,6.242
				S342.37,131.952,340.366,129.147z"/>
			<path style="fill:#2C2A40;" d="M342.616,136.841c0,0-4.562-1.027-5.127,4.271c-0.484,4.541,5.282,6.242,5.282,6.242
				S344.62,139.647,342.616,136.841z"/>
			<path style="fill:#2C2A40;" d="M339.607,130.216c0,0-7.26-2.79-4.777-10.796c2.483-8.006,11.943-4.819,11.943-4.819
				s0.349-5.58,6.592-5.867c6.244-0.287,8.51,4.697,8.51,4.697s4.223-4.196,9.362-2.938c5.139,1.258,6.881,7.494,5.287,10.445
				c0,0,3.265-0.581,5.748,3.223c2.483,3.803,3.118,9.444,0.036,11.539c0,0,3.662,4.01,1.664,9.453
				c-1.997,5.444-7.366,5.313-7.366,5.313s1.033,7.093-5.853,8.821c-6.887,1.728-6.244-4.395-6.244-4.395
				S352.435,127.049,339.607,130.216z"/>
			<g>
				<path style="fill:#F9B587;" d="M368.343,162.111l0.997,4.882c0.254,1.241-0.235,2.523-1.259,3.267
					c-8.839,6.422-15.574,2.005-16.992-0.173c1.068-1.002,20.044-18.958,20.35-29.053
					C371.439,141.033,373.617,153.59,368.343,162.111z"/>
				<path style="fill:#F9B587;" d="M340.111,143.763c-0.37,1.447-0.494,2.936-0.371,4.406c0.102,1.271,0.387,2.531,0.853,3.735
					l3.096,8.009c1.151,2.979,4.073,4.895,7.263,4.755c3.657-0.16,8.542-0.993,12.776-3.813c7.991-5.321,8.024-17.54,8.024-17.54
					s-0.658-12.396-10.948-17.091c-10.289-4.695-20.756,0.803-20.756,0.803l-1.198,8.674c-0.067,0.484-0.107,0.969-0.12,1.454
					c-0.047,1.63,0.205,3.259,0.748,4.808L340.111,143.763z"/>
				<path style="fill:#2C2A40;" d="M348.488,134.609c0,0,5.786-5.646,9.769-0.558l-0.721,1.301c0,0-4.025-3.505-8.676,0.874
					L348.488,134.609z"/>
				<path style="fill:#F39568;" d="M340.111,143.763c-0.37,1.447-0.494,2.936-0.371,4.406c1.24-0.88,3.737-1.615,8.763-0.933
					c0,0-2.697-2.19-5.387-2.238c-0.723-0.013-1.227-0.72-1.003-1.408l1.503-4.602c0,0-0.541-0.918-1.685-1.264
					c-0.698-0.21-2.081-0.465-3.201-0.57c-0.047,1.63,0.205,3.259,0.748,4.808L340.111,143.763z"/>
				<path style="fill:#2C2A40;" d="M338.983,135.768c1.951,0.129,3.519,0.686,3.519,0.686l0.179,1.5
					c-1.391-0.47-2.617-0.629-3.687-0.592c-0.529,0.019-0.964-0.378-0.937-0.849c0-0.006,0.001-0.011,0.001-0.017
					C338.082,136.063,338.497,135.736,338.983,135.768z"/>
				<path style="fill:#FFFFFF;" d="M342.41,150.934l13.743-1.3c0,0-1.577,7.418-8.886,7.228
					C341.535,156.714,342.41,150.934,342.41,150.934z"/>
				<path style="fill:#F39568;" d="M351.766,164.424c0,0,8.521-1.061,13.104-12.926c0,0,2.122,4.373-0.37,10.66
					c-2.492,6.286-13.411,7.928-13.411,7.928L351.766,164.424z"/>
				<path style="fill:#F9B587;" d="M368.215,141.305c0,0,2.589-4.936,6.367-2.717c3.778,2.219,1.671,13.483-3.811,11.372
					C365.288,147.849,368.215,141.305,368.215,141.305z"/>
			</g>
			<path style="fill:#2C2A40;" d="M350.194,138.961c0,0,0.805-2.452,3-2.462c3.201-0.016,3.817,2.692,3.817,2.692
				S353.902,134.913,350.194,138.961z"/>
			<path style="fill:#2C2A40;" d="M342.987,140.671c0,0-2.206-2.626-3.515,0.56C339.471,141.232,340.949,139.194,342.987,140.671z"
				/>
			<path style="fill:#2C2A40;" d="M339.607,130.216c0,0,3.732,0.938,6.878-1.233c3.146-2.171,2.384-4.101,2.384-4.101
				s1.283,3.196,5.541,2.87c4.258-0.326,4.846-1.511,4.846-1.511s-0.178,4.766,3.304,5.494c3.482,0.728,5.59-2.097,5.59-2.097
				s-15.475-13.629-20.795-9.992C342.034,123.282,337.455,125.198,339.607,130.216z"/>
			<path style="fill:#2C2A40;" d="M366.318,130.297c0,0-2.104,4.084,1.465,6.444c0,0-0.115,3.509-1.274,6.401l2.721-0.04
				c0,0,1.997-3.488,1.803-6.477S370.817,129.095,366.318,130.297z"/>
		</g>
		<path style="fill:#F39568;" d="M438.269,124.325c0,0-0.617,1.598-1.521,2.215c0,0,1.519-0.066,2.034-0.937L438.269,124.325z"/>
		<path style="fill:#A5C723;" d="M302.339,357.559c0.017-0.012,0.035-0.025,0.052-0.037v0.002
			C302.373,357.536,302.356,357.549,302.339,357.559z"/>
		<path style="opacity:0.2;fill:#2C2A40;" d="M388.434,278.676c-9.547-3.38-31.688-9.083-42.971-10.741
			c-16.807-2.467-25.853,8.553-25.853,8.553s3.288-18.255,6.086-21.874c2.795-3.617,4.44-15.458,5.59-20.392
			c0.155-0.659,0.239-1.495,0.274-2.45c0.158-4.418-0.807-11.358-1.369-14.952c-0.224-1.433-0.385-2.334-0.385-2.334
			c-1.7,2.795-12.739,8.55-18.388,11.368c-1.996,0.997-3.32,1.623-3.32,1.623l-4.685-7.11l-0.644-3.086
			c0,0,12.278-6.661,29.176-15.788c0,0,7.647,9.621,7.527,20.722c-0.215,19.75-3.049,33.222,9.184,37.825
			C360.506,264.504,386.801,277.845,388.434,278.676z"/>
		<path style="opacity:0.2;fill:#2C2A40;" d="M416.945,170.41c-0.052,4.761-0.303,8.222-0.303,8.222
			c-0.883,0.323-1.826,0.738-2.807,1.236c-6.508,3.298-14.592,10.178-16.558,17.185c-0.782,2.788-1.145,8.545-1.285,15.056
			c-0.116,5.262-0.084,11.015-0.012,16.089c0.005,0.274,0.007,0.548,0.012,0.817c0,0-4.347-29.66-1.88-38.376
			C396.551,182.019,416.501,170.662,416.945,170.41z"/>
		<path style="fill:#2C2A40;" d="M335.211,177.482c-3.595,21.38-2.938,46.707-2.938,46.707c1.316,6.743-1.469,12.304-1.469,12.304
			c-13.721-14.832-4.288-59.011,0.811-67.933c6.264-10.962,15.439,1.85,15.439,1.85l-4.692,1.482c0,0-1.627-2.294-3.638-1.806
			C336.714,170.574,335.211,177.482,335.211,177.482z"/>
		<path style="fill:#2C2A40;" d="M373.979,163.388c0,0,1.405-10.808,9.295-11.084c12.499-0.438,15.647,32.414,16.634,50.176
			c0.987,17.762-3.917,21.339-3.917,21.339l-0.153-10.114c0,0-6.466-43.707-9.669-51.397c-3.511-8.43-6.52-4.265-9.675-0.039
			l-2.82,1.299"/>
	</g>
	<g>
		<g>
			<path style="fill:#F9B587;" d="M100.775,152.167c-20.206-5.237-36.001-24.294-40.194-28.887c-0.367-0.403-0.775-1.08-1.208-1.983
				c-0.002-0.003-0.002-0.003-0.002-0.003c-4.009-8.31-10.482-35.634-11.924-41.827c-0.098-0.42-0.171-0.742-0.219-0.956
				c-0.048-0.196-0.07-0.299-0.07-0.299l11.494-5.023c0,0,0.936,11.021,6.473,19.912c5.537,8.892,10.64,22.985,10.64,22.985
				c10.822,5.325,22.399,15.221,22.399,15.221C104.203,143.968,100.775,152.167,100.775,152.167z"/>
			<path style="fill:#F39568;" d="M100.775,152.167c-20.206-5.237-36.001-24.294-40.194-28.887c-0.367-0.403-0.775-1.08-1.208-1.983
				c0.234,0.199,15.178,13.019,20.795,16.265c5.662,3.272,12.073,6.178,15.221,3.971c3.151-2.21,4.032-6.418,2.773-10.228
				C104.203,143.968,100.775,152.167,100.775,152.167z"/>
			<g>
				<path style="fill:#F9B587;" d="M47.864,78.792c2.216-0.073,9.945-2.065,10.905-2.503c0.335-0.154,0.475-0.635,0.513-1.196
					c0.301-0.324,2.257-2.473,2.73-4.157c0.258-0.926-0.698-1.713-1.85-2.382c0.963-1.939,1.137-7.144-1.242-9.065
					c-2.591-2.093-5.079,0.489-5.079,0.489c-2.969-2.41-4.835,0.774-4.835,0.774c-1.395-0.928-3.904,0.911-3.904,0.911
					c-1.285-0.675-2.742,0.678-3.07,1.933c-0.328,1.254,1.384,11.786,2.32,12.973C45.288,77.759,47.864,78.792,47.864,78.792z"/>
				<path style="fill:#F39568;" d="M55.281,71.507c1.14,1.616,2.363,0.542,2.363,0.542c-0.4,0.089-1.01-0.454-1.49-0.976
					c0,0-0.359-0.317-0.683-0.821c0-0.003,0-0.003-0.002-0.005c-0.353-0.55-0.661-1.327-0.422-2.173
					c0.434-1.519,1.191-1.738,1.191-1.738l-1.135-4.693c-0.267,1.708,0.096,4.588,0.096,4.588c-1.717,1.886-0.891,3.822-0.315,4.736
					c-0.352,0.358-0.875,0.644-1.537,0.35c-1.321-0.586-1.754-2.154-1.754-2.154l-1.495-6.448c0,0,0.387,7.408,1.82,8.771
					C53.82,73.295,55.281,71.507,55.281,71.507z"/>
				<path style="fill:#F39568;" d="M46.266,64.694c0,0,0.966,5.443,1.551,6.548c0.639,1.206,2.123,1.404,2.906,0.854
					c0.783-0.55,0.76-1.258,0.76-1.258l1.022,0.861c0,0-1.88,3.105-4.465,0.89C46.747,71.48,46.266,64.694,46.266,64.694z"/>
				<path style="fill:#F39568;" d="M47.583,71.909c0,0,0.077,1.199-0.856,1.784s-1.616,0.295-1.953-0.31
					c0,0,0.071,0.891,1.122,1.062c1.369,0.223,2.338-1.266,2.584-1.785L47.583,71.909z"/>
			</g>
			<path style="fill:#F39568;" d="M49.926,78.793c0,0-1.034,0.818-2.479,0.674c-0.098-0.42-0.171-0.742-0.219-0.956
				C47.228,78.511,48.416,78.871,49.926,78.793z"/>
			<path style="fill:#F39568;" d="M59.041,76.037c0,0-1.206,1.153-2.275,1.468c0,0,1.44,0.101,2.428-0.604L59.041,76.037z"/>
			<path style="fill:#F39568;" d="M75.764,116.086c0,0-3.859,3.231-6.04,3.567c0,0,4.409,1.471,8.119-2.494L75.764,116.086z"/>
		</g>
		<path style="fill:#2C2A40;" d="M88.093,213.813c0.45,0.658,1.284,1.029,2.159,1.234c0.668,10.622,2.079,19.628,4.187,23.503
			c6.495,11.931,48.816,12.724,57.628,2.32c8.809-10.404,6.497-71.306-8.183-79.072c-10.959-5.8-32.189-4.241-42.245-3.079
			c-4.208,0.487-7.712,3.485-8.784,7.583c-1.717,6.564-2.695,16.745-2.971,27.491c-0.595,0.094-1.222,0.267-1.807,0.566
			C86.093,195.376,86.868,212.023,88.093,213.813z"/>
		<path style="fill:#F9B587;" d="M246.837,154.675c0,0-3.231,11.984-8.348,25.28c-0.773,2.008-1.588,4.049-2.444,6.083
			c-3.481,8.282-7.601,16.452-12.042,22.014c-2.371,2.965-4.83,5.187-7.334,6.292c0,0-7.173,1.007-12.206-2.013
			c-5.033-3.02-24.664-12.75-27.055-16.945c0,0,7.55-10.703,14.723-11.665c0,0,2.665,1.377,6.44,3.571
			c4.062,2.356,9.41,5.658,14.119,9.206c0.453,0.34,0.898,0.682,1.336,1.027c0,0,0.37-0.72,1.037-1.973
			c1.699-3.186,5.328-9.82,9.725-16.829c0.939-1.5,1.915-3.02,2.914-4.525c0.222-0.335,0.446-0.669,0.669-1.002
			c7.802-11.577,8.809-20.038,8.809-20.038S244.698,152.529,246.837,154.675z"/>
		<path style="fill:#F39568;" d="M238.489,179.956c-0.773,2.008-1.588,4.049-2.444,6.083l-11.257-7.316
			c0.939-1.5,1.915-3.02,2.914-4.525L238.489,179.956z"/>
		<path style="fill:#F39568;" d="M224.003,208.052c-2.371,2.965-4.83,5.187-7.334,6.292c0,0-7.173,1.007-12.206-2.013
			c-5.033-3.02-24.664-12.75-27.055-16.945c0,0,7.55-10.703,14.723-11.665c0,0,2.665,1.377,6.44,3.571
			c-0.438,1.505-2.177,6.913-5.3,9.531c-3.649,3.055,4.782,10.102,12.08,13.248C212.65,213.216,217.736,213.08,224.003,208.052z"/>
		<path style="fill:#F39568;" d="M213.74,205.666c0.841-3.44-1.049-9.168-1.049-9.168c0.453,0.34,0.898,0.682,1.336,1.027
			c0,0,0.37-0.72,1.037-1.973C215.801,202.885,213.74,205.666,213.74,205.666z"/>
		<path style="fill:#B0B1CA;" d="M180.207,383.905c-6.712-3.858-9.06-7.716-13.087-14.428c-2.391-3.987-4.605-7.321-6.01-9.372
			c-0.971-1.419-1.085-3.257-0.292-4.784c0.06-0.118,0.123-0.237,0.189-0.36c1.578-2.985,4.198-7.188,6.458-7.296l2.557,1.392
			l8.844,4.817c0,0,3.858,8.866,3.689,12.737c-0.143,3.38,6.382,11.209,8.358,15.613c0.166,0.372,0.299,0.72,0.395,1.039
			c0.068,0.229,0.116,0.443,0.141,0.642C191.922,387.624,186.919,387.765,180.207,383.905z"/>
		<path style="fill:#2C2A40;" d="M180.207,383.905c-6.712-3.858-9.06-7.716-13.087-14.428c-2.391-3.987-4.605-7.321-6.01-9.372
			c-0.971-1.419-1.085-3.257-0.292-4.784c0.06-0.118,0.123-0.237,0.189-0.36c0.383,1.558,1.445,5.064,3.722,7.721
			c3.02,3.523,7.454,11.451,8.509,12.961c1.055,1.51,8.547,7.983,13.26,8.934c3.823,0.773,4.52-0.04,4.809-1.314
			c0.068,0.229,0.116,0.443,0.141,0.642C191.922,387.624,186.919,387.765,180.207,383.905z"/>
		<path style="opacity:0.2;fill:#2C2A40;" d="M180.207,383.905c-6.712-3.858-9.06-7.716-13.087-14.428
			c-2.391-3.987-4.605-7.321-6.01-9.372c-0.971-1.419-1.085-3.257-0.292-4.784c0.06-0.118,0.123-0.237,0.189-0.36
			c1.578-2.985,4.198-7.188,6.458-7.296l2.557,1.392c0,0-4.998,4.482-3.405,9.43c1.593,4.95,6.936,12.417,9.717,15.689
			c2.698,3.171,8.67,8.705,14.579,8.048c0.166,0.372,0.299,0.72,0.395,1.039c0.068,0.229,0.116,0.443,0.141,0.642
			C191.922,387.624,186.919,387.765,180.207,383.905z"/>
		<path style="fill:#B0B1CA;" d="M177.774,406.751c-0.154,4.452-3.32,8.547-10.308,7.354c-7.875-1.341-10.077-7.885-11.922-11.911
			c-1.845-4.027-6.209-17.952-8.053-23.488c-0.999-3-0.705-6.302-0.224-8.695c0.405-2.023,0.941-3.4,0.941-3.4l2.839,0.43
			l16.074,2.436c0,0,3.02,6.375,3.692,13.59c0.574,6.173,4.709,14.187,6.312,19.525c0,0.003,0,0.003,0,0.005
			c0.272,0.901,0.468,1.724,0.566,2.449C177.766,405.611,177.796,406.185,177.774,406.751z"/>
		<path style="opacity:0.2;fill:#2C2A40;" d="M177.774,406.751c-0.154,4.452-3.32,8.547-10.308,7.354
			c-7.875-1.341-10.077-7.885-11.922-11.911c-1.845-4.027-6.209-17.952-8.053-23.488c-0.999-3-0.705-6.302-0.224-8.695
			c0.405-2.023,0.941-3.4,0.941-3.4l2.839,0.43c-0.269,2.789,0.935,10.693,3.155,14.936c2.766,5.285,4.83,16.904,9.647,22.063
			c4.82,5.159,13.457,6.12,13.276-1.443c0.272,0.901,0.468,1.724,0.566,2.449C177.766,405.611,177.796,406.185,177.774,406.751z"/>
		<path style="fill:#2C2A40;" d="M177.774,406.751c-0.154,4.452-3.32,8.547-10.308,7.354c-7.875-1.341-10.077-7.885-11.922-11.911
			c-1.845-4.027-6.209-17.952-8.053-23.488c-0.999-3-0.705-6.302-0.224-8.695c0.405,2.464,2.515,10.41,4.993,16.737
			c4.024,10.276,7.238,19.304,10.042,22.324C165.105,412.086,176.165,414.1,177.774,406.751z"/>
		<path style="fill:#00497B;" d="M95.44,150.441l6.304,1.986c0,0-1.066,4.455-2.889,4.451
			C97.033,156.875,94.895,155.905,95.44,150.441z"/>
		<g>
			<path style="fill:none;" d="M180.207,310.25c1.221,3.052,0.082,6.243-1.27,11.34c5.375-7.825,14.357-20.233,14.357-20.233
				l-26.174-8.076C167.12,293.282,178.865,306.895,180.207,310.25z"/>
			<path style="fill:#2C2A40;" d="M225.332,290.862c-0.32-1.206-0.936-2.308-1.754-3.249c-2.708-3.121-10.711-11.383-26.76-20.987
				c-20.468-12.246-24.329-11.24-34.562-18.79c0,0-35-3.936-49.37,9.956c-0.148,0.143-0.295,0.289-0.438,0.435
				c-1.304,1.334-2.421,2.824-3.307,4.49c0,0,0,18.155,7.173,24.779s29.667,30.064,31.849,29.848c0,0,0.166,3.642,2.851,3.81
				c0,0-3.692,14.931-2.182,21.309c0,0-2.348,5.368-1.173,9.226c1.173,3.861-0.337,7.719-0.337,10.067
				c0,2.351,2.013,12.752,8.557,14.934c6.543,2.179,13.759-0.169,14.262-5.874c0.503-5.703-0.838-9.395-0.335-12.583
				c0.136-0.863,0.73-3.4,1.553-6.752c2.416,1.51,6.224,2.648,7.507,2.391c1.676-0.335,5.2-10.235,7.382-10.905
				c2.182-0.672,9.898-10.235,15.435-15.603C206.99,322.218,229.248,305.681,225.332,290.862z M167.12,293.284l26.174,8.073
				c0,0-8.982,12.41-14.358,20.234c1.354-5.096,2.492-8.29,1.271-11.34C178.866,306.894,167.12,293.284,167.12,293.284z"/>
			<g>
				<g>
					<path style="fill:#5B5B6C;" d="M113.646,259.323l-0.992,0.166c-0.093-0.554-0.164-0.984-0.206-1.261
						c0.143-0.146,0.289-0.292,0.438-0.435l0.498-0.076C113.384,257.72,113.477,258.314,113.646,259.323z"/>
				</g>
				<g>
					<path style="fill:#5B5B6C;" d="M114.038,261.556l-0.989,0.181c0.199,1.09,0.405,2.18,0.619,3.239l0.987-0.196
						C114.444,263.725,114.237,262.64,114.038,261.556z M115.118,267.002l-0.984,0.211c0.242,1.117,0.488,2.202,0.732,3.219
						l0.979-0.237C115.601,269.186,115.357,268.112,115.118,267.002z M116.399,272.392l-0.974,0.259
						c0.302,1.14,0.609,2.212,0.911,3.181l0.961-0.299C116.998,274.577,116.696,273.522,116.399,272.392z M118.015,277.67
						l-0.946,0.345c0.44,1.213,0.886,2.25,1.326,3.083l0.888-0.471C118.868,279.837,118.44,278.84,118.015,277.67z M120.484,282.386
						l-0.727,0.695c0.491,0.516,1.276,1.309,2.333,2.356l0.707-0.715C121.747,283.682,120.969,282.897,120.484,282.386z
						 M124.425,286.317l-0.705,0.72c0.727,0.71,1.52,1.48,2.363,2.298l0.702-0.725C125.94,287.795,125.15,287.027,124.425,286.317z
						 M128.426,290.193l-0.7,0.725c0.768,0.737,1.563,1.5,2.381,2.28l0.695-0.727C129.987,291.69,129.191,290.928,128.426,290.193z
						 M132.453,294.041l-0.695,0.73c0.788,0.747,1.588,1.505,2.393,2.268l0.69-0.732
						C134.039,295.546,133.238,294.789,132.453,294.041z M136.5,297.866l-0.69,0.735c0.805,0.755,1.608,1.508,2.406,2.252
						l0.687-0.737C138.108,299.374,137.303,298.621,136.5,297.866z M140.572,301.669l-0.685,0.737
						c0.823,0.765,1.636,1.513,2.424,2.235l0.68-0.742C142.203,303.179,141.395,302.432,140.572,301.669z M144.674,305.437
						l-0.677,0.745c0.858,0.78,1.679,1.52,2.451,2.207l0.669-0.753C146.348,306.952,145.53,306.214,144.674,305.437z
						 M148.824,309.141l-0.659,0.76c1.007,0.876,1.86,1.596,2.534,2.139l0.632-0.785
						C150.666,310.722,149.823,310.009,148.824,309.141z M153.095,312.473l-0.408,0.921c0.735,0.325,1.165,1.004,1.437,2.278
						l0.987-0.209C154.879,314.381,154.439,313.067,153.095,312.473z M155.446,317.761l-0.999,0.116
						c0.113,0.979,0.257,2.195,0.589,3.317l0.964-0.284C155.692,319.867,155.556,318.7,155.446,317.761z M155.151,323.272
						c-0.063,0.831-0.209,1.88-0.448,3.204l0.992,0.179c0.244-1.359,0.395-2.441,0.461-3.307L155.151,323.272z M154.273,328.701
						c-0.169,0.831-0.35,1.686-0.534,2.555l-0.138,0.662l0.984,0.206l0.141-0.659c0.184-0.871,0.365-1.731,0.533-2.562
						L154.273,328.701z M153.138,334.152c-0.257,1.268-0.451,2.3-0.612,3.246l0.992,0.169c0.158-0.936,0.352-1.958,0.607-3.216
						L153.138,334.152z M153.186,339.797l-0.999-0.123c-0.138,1.125-0.206,2.074-0.206,2.902c0,0.156,0.003,0.307,0.008,0.456
						l1.007-0.035c-0.005-0.136-0.008-0.277-0.008-0.42C152.987,341.788,153.052,340.879,153.186,339.797z M153.135,345.263
						l-1.004,0.04c0.02,0.556,0.033,1.135,0.033,1.724c0,0.493-0.007,0.994-0.023,1.528l1.007,0.028
						c0.015-0.544,0.023-1.052,0.023-1.555C153.17,346.426,153.158,345.832,153.135,345.263z M152.043,350.815
						c-0.033,0.591-0.071,1.178-0.106,1.757c-0.033,0.511-0.065,1.019-0.093,1.523l1.004,0.055c0.028-0.501,0.061-1.004,0.093-1.515
						c0.035-0.581,0.073-1.17,0.106-1.764L152.043,350.815z M152.775,359.13c-0.028-0.514-0.04-1.045-0.04-1.623
						c0-0.365,0.005-0.73,0.015-1.1l-1.007-0.025c-0.01,0.378-0.015,0.753-0.015,1.125c0,0.596,0.013,1.145,0.04,1.679
						c0.01,0.159,0.013,0.325,0.015,0.496l1.007-0.005C152.788,359.488,152.783,359.306,152.775,359.13z M151.653,361.896
						c-0.103,0.944-0.264,2.026-0.483,3.214l0.992,0.181c0.222-1.213,0.388-2.318,0.491-3.287L151.653,361.896z M150.727,367.327
						c-0.219,1.012-0.468,2.084-0.742,3.186l0.976,0.244c0.277-1.112,0.531-2.197,0.75-3.219L150.727,367.327z"/>
				</g>
			</g>
			<g>
				<path style="fill:#5B5B6C;" d="M163.164,286.398c0,0,1.183,0.395,3.121,1.047l0.322-0.954c-1.94-0.652-3.123-1.049-3.123-1.049
					L163.164,286.398z"/>
				<path style="fill:#5B5B6C;" d="M171.867,288.268c-1.112-0.378-2.159-0.73-3.108-1.052l-0.32,0.954
					c0.946,0.32,1.991,0.674,3.106,1.052L171.867,288.268z"/>
				<polygon style="fill:#5B5B6C;" points="178.176,328.401 178.999,328.983 180.887,326.302 180.064,325.721 				"/>
				
					<rect x="174.697" y="331.383" transform="matrix(0.5753 -0.818 0.818 0.5753 -196.5765 285.2017)" style="fill:#5B5B6C;" width="3.277" height="1.007"/>
				<path style="fill:#5B5B6C;" d="M173.238,335.406c0.032,0.558,0.048,1.116,0.054,1.674l1.202-1.707l-0.823-0.581L173.238,335.406
					z"/>
				<path style="fill:#5B5B6C;" d="M177.124,290.055c-1.062-0.362-2.104-0.715-3.106-1.057l-0.325,0.954
					c1.002,0.34,2.044,0.695,3.103,1.057L177.124,290.055z"/>
				<path style="fill:#5B5B6C;" d="M192.851,295.541c-0.964-0.347-2.001-0.72-3.09-1.105l-0.335,0.949
					c1.087,0.385,2.121,0.755,3.083,1.102L192.851,295.541z"/>
				<path style="fill:#5B5B6C;" d="M182.374,291.859c-1.034-0.357-2.074-0.715-3.103-1.067l-0.325,0.951
					c1.027,0.352,2.064,0.71,3.098,1.067L182.374,291.859z"/>
				<path style="fill:#5B5B6C;" d="M191.618,310.704l0.745,0.677c0.667-0.735,1.444-1.588,2.194-2.441l-0.753-0.664
					C193.058,309.121,192.282,309.972,191.618,310.704z"/>
				<path style="fill:#5B5B6C;" d="M195.277,306.567l0.773,0.649c0.82-0.979,1.49-1.83,2.046-2.607l-0.818-0.586
					C196.737,304.777,196.083,305.61,195.277,306.567z"/>
				<path style="fill:#5B5B6C;" d="M198.071,297.507c-0.735-0.299-1.772-0.7-3.08-1.185l-0.35,0.946
					c1.299,0.481,2.325,0.873,3.05,1.173L198.071,297.507z"/>
				<path style="fill:#5B5B6C;" d="M200.089,299.137l-0.949,0.335c0.048,0.139,0.073,0.3,0.073,0.473
					c0,0.569-0.252,1.314-0.745,2.222l0.883,0.481c0.584-1.07,0.868-1.956,0.868-2.703
					C200.22,299.656,200.177,299.384,200.089,299.137z"/>
				<polygon style="fill:#5B5B6C;" points="181.373,323.866 182.195,324.448 184.083,321.767 183.26,321.186 				"/>
				<path style="fill:#5B5B6C;" d="M187.913,314.852l0.765,0.652c0.566-0.667,1.233-1.422,2.159-2.446l-0.747-0.674
					C189.157,313.414,188.485,314.177,187.913,314.852z"/>
				<path style="fill:#5B5B6C;" d="M186.172,317.056l-1.603,2.275l0.823,0.579l1.603-2.273c0.091-0.128,0.184-0.259,0.284-0.393
					l-0.808-0.601C186.366,316.784,186.267,316.92,186.172,317.056z"/>
				<path style="fill:#5B5B6C;" d="M184.189,293.553c1.052,0.365,2.089,0.725,3.096,1.08l0.332-0.951
					c-1.007-0.352-2.044-0.715-3.096-1.08L184.189,293.553z"/>
			</g>
		</g>
		<path style="fill:#007BB0;" d="M196.817,186.216c-1.173,5.25-6.158,10.037-10.12,13.117c0,0,0,0-0.003,0
			c-2.836,2.207-5.147,3.539-5.147,3.539l-2.351-2.026l-7.296-6.279c0,0,0,0-3.506,7.233c-3.503,7.233-2.534,25.736-2.939,31.001
			c-0.355,4.595,6.73,15.359,8.154,19.036c0.209,0.538,0.297,0.924,0.221,1.117c-0.589,1.51-18.1,3.775-29.488,0
			c-11.385-3.775-34.448,10.016-35.203,9.765c-0.755-0.252-1.414-33.925-4.938-48.897c-3.523-14.969,2.348-54.237,2.348-54.237
			l-4.742-1.505l-2.137-0.677c-6.209,0.337-4.233-6.961-4.233-6.961s0.206,7.382,3.981,5.459c1.689-0.861,1.616-5.874,1.017-11.152
			c-0.732-6.468-2.25-13.333-2.273-13.439c0.073,0.02,1.211,0.325,3,0.831c5.97,1.681,19.182,5.597,24.178,8.572
			c1.5,0.893,5.124,3.493,7.928,5.539c2.069,1.505,3.689,2.713,3.689,2.713c9.881,5.444,13.047,5.084,21.1,7.475
			c0.352,0.106,0.71,0.211,1.067,0.315c9.785,2.907,20.979,6.36,25.134,13.356c3.211,5.411,8.617,11.71,11.157,14.562
			C196.284,185.645,196.817,186.216,196.817,186.216z"/>
		<path style="fill:#2C2A40;" d="M101.81,158.079l-2.137-0.677c-6.209,0.337-4.233-6.961-4.233-6.961s0.206,7.382,3.981,5.459
			c1.689-0.861,1.616-5.874,1.017-11.152c-0.732-6.468-2.25-13.333-2.273-13.439c0.073,0.02,1.211,0.325,3,0.831
			C102.658,138.167,105.336,151.508,101.81,158.079z"/>
		<path style="fill:#2C2A40;" d="M196.817,186.216c-1.173,5.25-6.158,10.037-10.12,13.117c0,0,0,0-0.003,0
			c-2.836,2.207-5.147,3.539-5.147,3.539l-2.351-2.026c7.983-5.401,13.635-12.193,15.83-16.615
			C195.894,185.204,196.817,186.216,196.817,186.216z"/>
		<path style="fill:#2C2A40;" d="M157.225,156.216c-1.575,4.195-3.968,7.981-16.278,5.004c-13.861-3.352-6.282-13.951-6.282-13.951
			c2.069,1.505,2.296,1.695,2.296,1.695c9.881,5.444,10.144,4.276,18.198,6.667C155.51,155.736,156.868,156.113,157.225,156.216z"/>
		<path style="opacity:0.2;fill:#2C2A40;" d="M186.695,199.333c-2.836,2.207-5.147,3.539-5.147,3.539l-9.646-8.305
			c0,0,0,0-3.506,7.233c-3.503,7.233-2.534,25.736-2.939,31.001c-6.913-16.442,5.187-46.565,5.187-46.565
			C174.137,193.022,186.486,199.182,186.695,199.333z"/>
		<path style="opacity:0.2;fill:#2C2A40;" d="M173.832,252.954c-0.589,1.51-18.1,3.775-29.488,0
			c-11.385-3.775-34.448,10.016-35.203,9.765c-0.755-0.252-1.414-33.925-4.938-48.897c-3.523-14.969,2.348-54.237,2.348-54.237
			l-6.878-2.182c-6.209,0.337-4.233-6.961-4.233-6.961s0.206,7.382,3.981,5.459c1.689-0.861,1.616-5.874,1.017-11.152
			c0,0,11.987,8.63,18.865,10.643c0,0-1.93,12.335-3.775,28.396c-1.847,16.064-0.669,27.107,3.02,38.347
			c3.692,11.242,11.934,22.01,23.373,23.185c11.441,1.173,22.577,9.176,31.69,6.516C173.82,252.375,173.908,252.76,173.832,252.954z
			"/>
		<g>
			<path style="fill:#2C2A40;" d="M176.988,118.481c0,0,0,0-0.002-0.001c-0.285,0.282-0.474,0.428-0.474,0.428l-37.664,13.182
				c0,0-5.628-2.591-5.298-12.429c0.236-7.096,4.814-10.348,7.348-11.61c-0.308-0.31-0.59-0.643-0.82-0.942
				c-0.342-0.443-0.032-1.084,0.525-1.096c0.469-0.011,0.881,0.011,1.246,0.061c-0.111-0.469-0.171-0.946-0.205-1.36
				c-0.046-0.558,0.562-0.925,1.04-0.634c0.766,0.47,1.293,0.94,1.647,1.382c0.017-0.017,0.033-0.034,0.05-0.05
				c3.651-3.683,8.546-5.868,13.723-6.164c2.831-0.162,6.283-0.412,9.715-0.791c6.593-0.729,11.725,0.457,13.647-1.522
				C181.465,96.935,189.586,110.456,176.988,118.481z"/>
			<path style="fill:#2C2A40;" d="M176.257,116.086c0,0,3.852,9.017-2.529,14.389C173.728,130.475,172.785,119.678,176.257,116.086z
				"/>
			<path style="fill:#F9B587;" d="M153.868,157.851c-0.062,0.051-0.128,0.105-0.195,0.158c-0.776,0.611-1.942,1.29-3.674,1.839
				c-3.269,1.037-10.492-2.156-13.632-3.675c-0.84-0.407-1.233-1.387-0.904-2.26c1.755-4.659,2.593-9.615,2.587-14.613
				c-0.008-7.636,3.076-14.651,3.076-14.651c-0.778,3.604,0.584,8.807,2.681,14.041C147.262,147.316,152.71,156.034,153.868,157.851
				z"/>
			<path style="fill:#F9B587;" d="M171.239,134.949c0.011,1.511-0.229,3.004-0.707,4.419c-0.409,1.224-0.995,2.393-1.746,3.462
				l-4.989,7.115c-1.855,2.646-5.191,3.818-8.292,2.905c-3.553-1.046-8.15-3.053-11.624-6.853
				c-6.556-7.171-3.618-19.183-3.618-19.183s3.661-12.018,14.911-14.128c11.25-2.111,20.196,5.836,20.196,5.836l-0.932,8.812
				c-0.052,0.492-0.13,0.978-0.236,1.458c-0.351,1.613-0.994,3.152-1.904,4.542L171.239,134.949z"/>
			<path style="fill:#2C2A40;" d="M165.235,123.919c0,0-4.311-6.953-9.462-2.924l0.392,1.453c0,0,4.806-2.464,8.311,2.969
				L165.235,123.919z"/>
			<path style="fill:#F39568;" d="M171.239,134.949c0.011,1.511-0.229,3.004-0.707,4.419c-1.004-1.166-3.279-2.495-8.382-3.048
				c0,0,3.182-1.495,5.837-0.889c0.713,0.163,1.381-0.41,1.327-1.139l-0.357-4.887c0,0,0.754-0.771,1.963-0.832
				c0.737-0.037,2.157,0.049,3.284,0.218c-0.351,1.613-0.994,3.152-1.904,4.542L171.239,134.949z"/>
			<path style="fill:#2C2A40;" d="M174.291,127.369c-1.948-0.348-3.624-0.182-3.624-0.182l-0.541,1.43
				c1.48-0.124,2.724,0.018,3.766,0.315c0.515,0.147,1.039-0.137,1.127-0.606c0.001-0.006,0.002-0.011,0.003-0.017
				C175.105,127.877,174.776,127.455,174.291,127.369z"/>
			<path style="fill:#FFFFFF;" d="M167.236,141.435l-13.185-4.619c0,0-0.254,7.671,6.972,9.261
				C166.691,147.325,167.236,141.435,167.236,141.435z"/>
			<path style="fill:#F39568;" d="M154.765,152.412l-0.605,5.177c-0.09,0.084-0.186,0.172-0.292,0.262
				c-0.062,0.051-0.128,0.105-0.195,0.158c-1.941-0.889-10.058-4.954-10.866-10.92c-0.514-3.775,0.234-6.62,1-8.4
				c0.607-1.417,1.227-2.161,1.227-2.161C146.652,149.299,154.765,152.412,154.765,152.412z"/>
			<path style="fill:#F9B587;" d="M144.227,125.701c0,0-1.343-5.478-5.594-4.217c-4.251,1.261-4.92,12.84,0.979,12.098
				C145.511,132.84,144.227,125.701,144.227,125.701z"/>
			<path style="fill:#2C2A40;" d="M156.938,112.435c0,0-2.485,0.257-2.785,3.402c-0.3,3.144-0.836,8.493-4.881,8.38
				c-4.045-0.113-4.44,4.802-4.44,4.802l-2.895-0.699c0,0-0.285-8.737,1.641-11.713C145.505,113.63,153.622,109.334,156.938,112.435
				z"/>
			<path style="fill:#2C2A40;" d="M156.476,126.247c0,0,1.385-1.77,4.158-0.958c2.773,0.812,2.62,3.769,2.62,3.769
				S161.702,125.183,156.476,126.247z"/>
			<path style="fill:#2C2A40;" d="M169.537,131.125c0,0,0.986-0.605,2.131-0.161c1.145,0.444,0.728,1.937,0.728,1.937
				S172.131,130.979,169.537,131.125z"/>
		</g>
		<g>
			<g>
				
					<rect x="206.096" y="141.155" transform="matrix(0.8454 0.5342 -0.5342 0.8454 121.1765 -100.0759)" style="fill:#2C2A40;" width="54.696" height="36.217"/>
				<polygon style="fill:#2C2A40;" points="266.237,158.564 246.89,189.182 200.652,159.964 202.653,159.823 265.414,155.392 
					265.969,157.529 265.967,157.531 				"/>
				<path style="fill:#FFFFFF;" d="M265.969,157.529l-18.502,29.366c-0.635-0.401-0.355-0.224-1.401-0.885l-12.669-29.268
					l32.016-1.349L265.969,157.529z"/>
				
					<rect x="207.479" y="138.622" transform="matrix(0.8454 0.5342 -0.5342 0.8454 119.8518 -100.5674)" style="fill:#2C2A40;" width="52.305" height="36.217"/>
			</g>
			<path style="fill:#F9B587;" d="M251.036,143.193c-0.003-0.006-0.006-0.009-0.006-0.009c-0.436-0.8-1.391-1.485-2.053-1.581
				c-0.006-0.69-0.675-1.337-1.505-1.697c-0.483-0.209-1.025-0.222-1.533-0.085c-0.235-0.844-1.135-1.504-1.74-1.316
				c0,0-0.145,0.028-0.39,0.085c-0.066-0.605-0.43-0.988-0.43-0.988h-0.003c-0.394-0.904-1.902-1.654-2.581-1.444
				c0,0-5.758,1.033-7.12,5.02c-1.362,3.987-3.109,8.596-1.07,8.313c0.584-0.081,1.261-0.647,1.926-1.468
				c-0.719,2.415-0.984,4.276,0.335,4.093c0.734-0.102,1.614-0.968,2.434-2.146c-0.555,2.059-0.65,3.55,0.536,3.386
				c1.071-0.148,2.454-1.927,3.507-3.924c-0.681,2.332-0.903,4.103,0.386,3.924c1.578-0.219,2.686-3.427,4.27-5.877
				c1.858-2.87,1.794-1.178,3.801-1.951l1.464,0.925C251.975,144.701,251.115,143.316,251.036,143.193z"/>
		</g>
		<path style="fill:#2C2A40;" d="M134.665,147.269c0,0,1.596-13.286-3.911-14.368c-10.696-2.1-22.573,13.737-29.01,30.206
			c-9.689,24.789,1.504,43.402,1.504,43.402l0.198-9.494c0,0-0.88-20.642,8.684-36.964c9.563-16.322,16.233-20.726,17.617-19.594
			c1.384,1.132,1.452,4.291,1.452,4.291L134.665,147.269z"/>
		<path style="fill:#2C2A40;" d="M159.127,156.753c0,0,3.199-8.272,13.454-4.585c8.969,3.224,8.042,12.786,6.658,25.369
			c-1.384,12.583-13.572,43.705-13.572,43.705s-0.519-10.963,0.866-17.507c0,0,8.389-27.666,5.369-38.614
			c-3.02-10.948-9.752-7.46-9.752-7.46L159.127,156.753z"/>
	</g>
</g>
<g id="DESIGNED_BY_FREEPIK">
	<g>
		<g id="XMLID_319_">
			<g id="XMLID_338_">
				<path id="XMLID_346_" style="fill:#112129;" d="M260.104,465.465c-0.432,0.443-0.803,0.931-1.108,1.453l-0.465-0.241
					c-0.067-0.298-0.349-0.503-0.659-0.466c-0.331,0.039-0.568,0.339-0.529,0.67c0.039,0.331,0.339,0.568,0.67,0.529
					c0.065-0.008,0.127-0.026,0.183-0.052l0.452,0.234c-0.251,0.554-0.433,1.139-0.539,1.744l0.747,0.132
					c0.23-1.306,0.85-2.507,1.792-3.473L260.104,465.465z"/>
				<path id="XMLID_345_" style="fill:#112129;" d="M265.592,463.163c-0.171,0-0.341,0.006-0.51,0.017l-0.074-0.626
					c0.188-0.149,0.296-0.389,0.266-0.645c-0.046-0.393-0.402-0.674-0.795-0.628c-0.393,0.046-0.674,0.402-0.628,0.795
					c0.03,0.254,0.189,0.461,0.405,0.564l0.073,0.624c-0.714,0.116-1.403,0.332-2.06,0.646l0.327,0.684
					c0.934-0.447,1.942-0.673,2.995-0.673c0.496,0,0.993,0.053,1.475,0.158l0.161-0.741
					C266.692,463.222,266.142,463.163,265.592,463.163z"/>
				<path id="XMLID_344_" style="fill:#112129;" d="M272.194,465.711c0.331-0.04,0.566-0.341,0.526-0.672
					c-0.04-0.331-0.341-0.566-0.672-0.526c-0.309,0.038-0.535,0.304-0.53,0.609l-0.416,0.363c-0.418-0.43-0.89-0.813-1.408-1.139
					l-0.404,0.641c1.134,0.715,2.021,1.726,2.563,2.925l0.691-0.313c-0.251-0.554-0.568-1.072-0.942-1.545l0.402-0.351
					C272.065,465.716,272.129,465.719,272.194,465.711z"/>
				<path id="XMLID_343_" style="fill:#112129;" d="M265.044,473.372c-0.386,0.023-0.775,0.035-1.157,0.035
					c-0.88,0-1.733-0.061-2.478-0.179c-0.39-0.062-0.846-0.155-1.27-0.292c1.046,1.861,3.069,3.125,5.388,3.125
					c2.855,0,5.262-1.916,5.95-4.504c-0.682,0.449-1.505,0.825-2.459,1.123C267.839,473.047,266.464,473.286,265.044,473.372z"/>
				<path id="XMLID_339_" style="fill:#112129;" d="M265.592,464.68c-3.352,0-6.08,2.666-6.08,5.943
					c0,0.426,0.046,0.849,0.137,1.261c0.673,0.483,2.706,0.89,5.348,0.731c2.879-0.173,5.297-0.957,6.672-2.159
					c-0.005-0.195-0.021-0.39-0.045-0.582C271.244,466.913,268.65,464.68,265.592,464.68z M263.432,471.194
					c-1.02,0-1.85-0.83-1.85-1.85c0-1.02,0.83-1.85,1.85-1.85c1.02,0,1.85,0.83,1.85,1.85
					C265.282,470.365,264.452,471.194,263.432,471.194z M268.17,470.286c-0.75,0-1.36-0.61-1.36-1.36s0.61-1.361,1.36-1.361
					c0.75,0,1.361,0.61,1.361,1.361S268.92,470.286,268.17,470.286z"/>
			</g>
			<path id="XMLID_336_" style="fill:#112129;" d="M281.595,466.547c-0.295-0.116-0.805-0.309-1.382-0.237
				c-0.551,0.069-0.844,0.341-0.844,1.007v0.866h2.228v1.717h-2.228v5.455h-1.932v-5.455h-1.34v-1.717h1.34v-0.888
				c0-1.68,0.896-2.783,2.568-2.783c0.643,0,1.157,0.122,1.59,0.308L281.595,466.547z"/>
			<path id="XMLID_334_" style="fill:#112129;" d="M286.298,469.879c-0.177-0.03-0.358-0.046-0.526-0.046
				c-0.896,0-1.51,0.548-1.51,1.614v3.908h-1.932v-7.172h1.873v0.785c0.451-0.673,1.14-0.977,2.021-0.977
				c0.414,0,0.848,0.128,1.094,0.337L286.298,469.879z"/>
			<path id="XMLID_331_" style="fill:#112129;" d="M293.965,471.757c0,0.222-0.015,0.489-0.037,0.651h-5.085
				c0.207,1.036,0.933,1.488,1.843,1.488c0.622,0,1.295-0.252,1.813-0.688l1.132,1.243c-0.814,0.748-1.85,1.088-3.057,1.088
				c-2.198,0-3.723-1.495-3.723-3.753c0-2.258,1.48-3.797,3.627-3.797C292.544,467.99,293.958,469.522,293.965,471.757z
				 M288.851,471.091h3.175c-0.177-0.918-0.733-1.436-1.562-1.436C289.554,469.655,289.021,470.203,288.851,471.091z"/>
			<path id="XMLID_328_" style="fill:#112129;" d="M301.618,471.757c0,0.222-0.015,0.489-0.037,0.651h-5.085
				c0.207,1.036,0.933,1.488,1.843,1.488c0.622,0,1.295-0.252,1.813-0.688l1.132,1.243c-0.814,0.748-1.85,1.088-3.057,1.088
				c-2.198,0-3.723-1.495-3.723-3.753c0-2.258,1.48-3.797,3.627-3.797C300.197,467.99,301.611,469.522,301.618,471.757z
				 M296.504,471.091h3.175c-0.178-0.918-0.733-1.436-1.562-1.436C297.207,469.655,296.674,470.203,296.504,471.091z"/>
			<path id="XMLID_325_" style="fill:#112129;" d="M309.964,471.764c0,2.154-1.495,3.775-3.471,3.775
				c-0.962,0-1.643-0.378-2.109-0.933v3.708h-1.924v-10.133h1.887v0.792c0.466-0.585,1.155-0.984,2.139-0.984
				C308.469,467.99,309.964,469.61,309.964,471.764z M304.287,471.764c0,1.132,0.747,1.976,1.843,1.976
				c1.14,0,1.85-0.881,1.85-1.976c0-1.095-0.71-1.976-1.85-1.976C305.035,469.788,304.287,470.632,304.287,471.764z"/>
			<path id="XMLID_322_" style="fill:#112129;" d="M313.068,465.836c0,0.696-0.54,1.229-1.236,1.229
				c-0.696,0-1.229-0.533-1.229-1.229c0-0.696,0.533-1.243,1.229-1.243C312.527,464.592,313.068,465.14,313.068,465.836z
				 M312.809,475.354h-1.932v-7.172h1.932V475.354z"/>
			<path id="XMLID_320_" style="fill:#112129;" d="M316.032,470.736l2.701-2.554h2.368l-3.479,3.375l3.501,3.797h-2.376
				l-2.716-2.901v2.901H314.1v-10.658h1.932V470.736z"/>
		</g>
		<g>
			<path style="fill:#112129;" d="M184.412,475.289v-1.055c-0.527,0.718-1.391,1.23-2.387,1.23c-1.846,0-3.149-1.406-3.149-3.706
				c0-2.256,1.289-3.721,3.149-3.721c0.952,0,1.816,0.469,2.387,1.245v-3.765h1.099v9.77H184.412z M184.412,473.37v-3.208
				c-0.395-0.615-1.245-1.143-2.124-1.143c-1.421,0-2.27,1.172-2.27,2.739c0,1.567,0.85,2.724,2.27,2.724
				C183.168,474.483,184.017,473.986,184.412,473.37z"/>
			<path style="fill:#112129;" d="M186.932,471.744c0-2.051,1.465-3.706,3.486-3.706c2.139,0,3.398,1.67,3.398,3.794v0.279h-5.727
				c0.088,1.333,1.025,2.446,2.549,2.446c0.805,0,1.626-0.322,2.182-0.894l0.527,0.718c-0.703,0.703-1.655,1.084-2.812,1.084
				C188.44,475.465,186.932,473.956,186.932,471.744z M190.403,468.947c-1.509,0-2.256,1.274-2.314,2.358h4.643
				C192.718,470.25,192.015,468.947,190.403,468.947z"/>
			<path style="fill:#112129;" d="M194.607,474.351l0.571-0.791c0.469,0.542,1.362,1.011,2.329,1.011c1.084,0,1.67-0.513,1.67-1.216
				c0-1.714-4.38-0.659-4.38-3.281c0-1.098,0.952-2.036,2.636-2.036c1.201,0,2.051,0.454,2.622,1.026l-0.513,0.762
				c-0.424-0.513-1.201-0.894-2.109-0.894c-0.967,0-1.567,0.483-1.567,1.113c0,1.552,4.38,0.527,4.38,3.281
				c0,1.187-0.952,2.138-2.783,2.138C196.306,475.465,195.325,475.113,194.607,474.351z"/>
			<path style="fill:#112129;" d="M201.477,466.471c0-0.41,0.337-0.747,0.732-0.747c0.41,0,0.747,0.337,0.747,0.747
				c0,0.41-0.337,0.732-0.747,0.732C201.814,467.203,201.477,466.881,201.477,466.471z M201.667,475.289v-7.075h1.099v7.075H201.667
				z"/>
			<path style="fill:#112129;" d="M204.582,477.105l0.556-0.82c0.586,0.703,1.289,0.967,2.3,0.967c1.172,0,2.27-0.571,2.27-2.124
				v-1.011c-0.513,0.718-1.377,1.26-2.373,1.26c-1.845,0-3.149-1.377-3.149-3.662c0-2.27,1.289-3.677,3.149-3.677
				c0.952,0,1.802,0.469,2.373,1.245v-1.069h1.098v6.87c0,2.344-1.641,3.076-3.369,3.076
				C206.237,478.16,205.417,477.926,204.582,477.105z M209.709,473.253v-3.091c-0.381-0.615-1.23-1.143-2.109-1.143
				c-1.421,0-2.27,1.128-2.27,2.695c0,1.553,0.849,2.695,2.27,2.695C208.478,474.41,209.328,473.868,209.709,473.253z"/>
			<path style="fill:#112129;" d="M217.413,475.289v-4.629c0-1.245-0.63-1.641-1.582-1.641c-0.865,0-1.685,0.527-2.095,1.099v5.17
				h-1.099v-7.075h1.099v1.025c0.498-0.586,1.465-1.201,2.519-1.201c1.48,0,2.256,0.747,2.256,2.285v4.966H217.413z"/>
			<path style="fill:#112129;" d="M219.932,471.744c0-2.051,1.465-3.706,3.486-3.706c2.139,0,3.398,1.67,3.398,3.794v0.279h-5.727
				c0.088,1.333,1.025,2.446,2.549,2.446c0.806,0,1.626-0.322,2.183-0.894l0.527,0.718c-0.703,0.703-1.655,1.084-2.812,1.084
				C221.441,475.465,219.932,473.956,219.932,471.744z M223.404,468.947c-1.509,0-2.256,1.274-2.314,2.358h4.643
				C225.718,470.25,225.015,468.947,223.404,468.947z"/>
			<path style="fill:#112129;" d="M233.35,475.289v-1.055c-0.527,0.718-1.392,1.23-2.388,1.23c-1.846,0-3.149-1.406-3.149-3.706
				c0-2.256,1.289-3.721,3.149-3.721c0.952,0,1.817,0.469,2.388,1.245v-3.765h1.098v9.77H233.35z M233.35,473.37v-3.208
				c-0.396-0.615-1.245-1.143-2.124-1.143c-1.421,0-2.27,1.172-2.27,2.739c0,1.567,0.849,2.724,2.27,2.724
				C232.105,474.483,232.954,473.986,233.35,473.37z"/>
			<path style="fill:#112129;" d="M239.692,475.289v-9.77h1.098v3.765c0.572-0.776,1.421-1.245,2.388-1.245
				c1.845,0,3.149,1.465,3.149,3.721c0,2.299-1.304,3.706-3.149,3.706c-0.996,0-1.86-0.513-2.388-1.23v1.055H239.692z
				 M242.9,474.483c1.436,0,2.285-1.157,2.285-2.724c0-1.568-0.85-2.739-2.285-2.739c-0.864,0-1.728,0.527-2.109,1.143v3.208
				C241.171,473.986,242.036,474.483,242.9,474.483z"/>
			<path style="fill:#112129;" d="M247.528,477.061c0.161,0.073,0.425,0.117,0.601,0.117c0.483,0,0.805-0.161,1.055-0.747
				l0.469-1.069l-2.959-7.148h1.187l2.358,5.8l2.344-5.8h1.201l-3.545,8.51c-0.425,1.025-1.143,1.421-2.08,1.435
				c-0.234,0-0.601-0.044-0.806-0.103L247.528,477.061z"/>
		</g>
	</g>
</g>
</svg>
